<?xml version="1.0" encoding="UTF-8"?><svg id="Layer_1" xmlns="http://www.w3.org/2000/svg" width="128.61" height="75" viewBox="0 0 128.61 75"><defs><style>.cls-1{stroke-width:6px;}.cls-1,.cls-2{fill:none;stroke:#01142a;stroke-miterlimit:10;}.cls-2{stroke-width:4px;}</style></defs><path class="cls-1" d="m21.28,39.49c12.9-16.58,32.85-26.42,52.86-26.07,20,.35,39.66,10.88,52.05,27.9"/><path class="cls-2" d="m92.01,50.74c-5.1,3.03-12.99,4.82-20.9,4.76-7.91-.06-15.68-1.99-20.59-5.09"/><path class="cls-2" d="m92.92,45.65c-5.1,3.03-12.99,4.82-20.9,4.76-7.91-.06-15.68-1.99-20.59-5.09"/><path class="cls-1" d="m21.28,39.61c12.9,16.58,32.85,26.42,52.86,26.07,20-.35,39.66-10.88,52.05-27.9"/><polygon class="cls-1" points="21.28 38.02 3 14.98 3 61.06 21.28 38.02"/><ellipse class="cls-2" cx="98.08" cy="33.43" rx="1.37" ry="1.66"/><path class="cls-2" d="m54.57,14.98c.03-4.31.06-8.61-.16-11.62,10.11-3.81,21.96.58,28.59,10.59"/><path class="cls-2" d="m57.13,64.58c.03,2.79.06,5.58-.16,7.53,10.11,2.47,21.96-.38,28.59-6.87"/></svg>