<?xml version="1.0" encoding="utf-8"?>
<!-- Generator: Adobe Illustrator 28.0.0, SVG Export Plug-In . SVG Version: 6.00 Build 0)  -->
<svg version="1.1" id="Layer_1" xmlns="http://www.w3.org/2000/svg" xmlns:xlink="http://www.w3.org/1999/xlink" x="0px" y="0px"
	 viewBox="0 0 142.2 83.1" style="enable-background:new 0 0 142.2 83.1;" xml:space="preserve">
<style type="text/css">
	.st0{fill:none;stroke:#01142A;stroke-width:6.5901;stroke-miterlimit:10;}
	.st1{fill:none;stroke:#01142A;stroke-width:4.3934;stroke-miterlimit:10;}
</style>
<path class="st0" d="M23.3,43.9c14.3-18,36.5-28.7,58.8-28.3c22.2,0.4,44.1,11.8,57.9,30.3"/>
<path class="st1" d="M102,56.1c-5.7,3.3-14.4,5.2-23.2,5.2s-17.4-2.2-22.9-5.5"/>
<path class="st1" d="M103,50.6c-5.7,3.3-14.4,5.2-23.2,5.2c-8.8-0.1-17.4-2.2-22.9-5.5"/>
<path class="st0" d="M23.3,44.1c14.3,18,36.5,28.7,58.8,28.3c22.2-0.4,44.1-11.8,57.9-30.3"/>
<polygon class="st0" points="23.3,42.3 3,17.4 3,67.3 "/>
<ellipse class="st1" cx="108.7" cy="37.4" rx="1.5" ry="1.8"/>
<path class="st1" d="M60.4,17.4c0-4.7,0.1-9.3-0.2-12.6C71.4,0.6,84.6,5.4,92,16.2"/>
<path class="st1" d="M63.2,71.2c0,3,0.1,6.1-0.2,8.2c11.2,2.7,24.4-0.4,31.8-7.5"/>
</svg>
