<?xml version="1.0" encoding="UTF-8"?><svg id="Layer_1" xmlns="http://www.w3.org/2000/svg" width="124.55" height="78.3" viewBox="0 0 124.55 78.3"><defs><style>.cls-1{fill:none;stroke:#01142a;stroke-miterlimit:10;stroke-width:6px;}</style></defs><path class="cls-1" d="m12.18,41.94c-7.12,4.89-10.74,12.93-8.55,21.7,2.24,8.96,13.72,13.4,21.85,11.03,3.47-1.01,15.94-9.91,24.03-12.46,8.08-2.55,17.07-3.08,25.22-.61,9.92,3.01,21.77-1.48,24.25-12.4s-2.64-22.99-11.07-29.53c-8.42-6.54-17-5.72-26.22-.86-11.01,5.81-10.45,9.24-18.44,14.72-9.65,6.47-21.56,1.88-31.06,8.4Z"/><ellipse class="cls-1" cx="113.81" cy="52.03" rx="6.56" ry="7.74" transform="translate(60.79 165.38) rotate(-89.5)"/><ellipse class="cls-1" cx="110.48" cy="34.2" rx="5.68" ry="4.73" transform="translate(-5.17 33.96) rotate(-17.08)"/><ellipse class="cls-1" cx="104.35" cy="20.16" rx="4.46" ry="3.79" transform="translate(4.61 56.85) rotate(-31.13)"/><ellipse class="cls-1" cx="95.39" cy="10.36" rx="3.83" ry="2.9" transform="translate(16.46 64.92) rotate(-40.85)"/><ellipse class="cls-1" cx="84.33" cy="5.66" rx="3.13" ry="2.19" transform="translate(18.45 58.61) rotate(-42.63)"/><path class="cls-1" d="m28.28,61.11c12.22-13.52,33.61-18.27,50.63-11.24"/></svg>