<svg width="17" height="16" viewBox="0 0 17 16" fill="none" xmlns="http://www.w3.org/2000/svg">
<path d="M8.38043 11.2616C9.99872 11.2616 11.3107 10.0011 11.3107 8.44624C11.3107 6.89135 9.99872 5.63086 8.38043 5.63086C6.7621 5.63086 5.4502 6.89135 5.4502 8.44624C5.4502 10.0011 6.7621 11.2616 8.38043 11.2616Z" stroke="white" stroke-width="1.5" stroke-linecap="round" stroke-linejoin="round"/>
<path d="M1 11.1667V4.91026C1 2.75068 2.8221 1 5.06977 1H11.5814C13.829 1 15.6512 2.75068 15.6512 4.91026V11.1667C15.6512 13.3262 13.829 15.0769 11.5814 15.0769H5.06977C2.8221 15.0769 1 13.3262 1 11.1667Z" stroke="white" stroke-width="1.5"/>
<path d="M11.7441 3.82777L11.7553 3.81543" stroke="white" stroke-width="2" stroke-linecap="round" stroke-linejoin="round"/>
</svg>
