<?xml version="1.0" encoding="utf-8"?>
<!-- Generator: Adobe Illustrator 28.0.0, SVG Export Plug-In . SVG Version: 6.00 Build 0)  -->
<svg version="1.1" id="Layer_1" xmlns="http://www.w3.org/2000/svg" xmlns:xlink="http://www.w3.org/1999/xlink" x="0px" y="0px"
	 viewBox="0 0 83.6 83.7" style="enable-background:new 0 0 83.6 83.7;" xml:space="preserve">
<style type="text/css">
	.st0{fill:none;stroke:#01142A;stroke-width:4;stroke-miterlimit:10;}
	.st1{fill:none;stroke:#01142A;stroke-width:4.115;stroke-miterlimit:10;}
</style>
<circle class="st0" cx="41.8" cy="41.8" r="38.4"/>
<path class="st0" d="M66.8,12.7c1.3,1.5-1.7,5.2-3.5,6.2c-1.9,1.1-4.1,1.4-5.6,3s-0.7,3.8,1.1,4.8c1.1,0.5,1,2.5,0,3.3
	c-1.1,0.9-2.8,0.7-4.2,0.4c-1.4-0.3-2.9-0.8-4.3-0.4c-1.4,0.4-2.9,3.4-1.5,3.4c1.2,0,1.6-1,2.6-0.6c2.5,1.1,3.3,4.5,1.5,6.6
	c-1.6,1.9-4,2.7-6.4,3.4c-2.8,1.1,5.6,0.2,7-2.9c2,0.6,4.2,0.1,6.1-0.7c1.9-0.8,3.8-1.9,5.8-2.5c2-0.6,4.3-0.6,6,0.7
	c1.9,1.4,2,4.4,0.2,5.9c-7.7,6.6-18.2,9.8-28.3,8.5c-1.5-0.2-3,0.3-4,1.3c-2.9,2.7-0.5,6.9,2.7,7.1c2.9,0.2,5.7,2.2,6.7,5
	c1.1,2.8,0.4,6.1-1.7,8.2c-0.9,0.9-0.9,2.6,0,3.5c0.9,0.9-0.8-2.1,0.1-2.9"/>
<path class="st1" d="M41.4,4.7c0.1,2.6,2.3,6.7,0.7,9.6c-1.6,3-5.1,4.7-8.2,4.1c-1.2-0.2-2.3,0.7-3,1.8c-0.7,1-1.2,2.2-2.2,2.9
	c-1,0.7-2.6,0.7-3.1-0.5C24.4,20,22,18,19.3,17.4c-2.7-0.6-5.7,3.2-7.7,2.3"/>
<path class="st0" d="M5.7,27.8c2.1,1.6,4.8,1.9,7.4,2.4c2.6,0.5,5.3,1.2,7,3.1s1.6,5.6-0.7,6.7c-1.4,0.7-3.8,3.8-2.3,3.8
	c4.5,0,2.9,4,2.6,3.6c-2.2-0.4-4.6,0.4-5.8,1.7c-0.4,0.4-1.4,0.8-0.3,2.4s2.6,2.7,3.7,4.3c1.1,1.6,1.5,3.8,0.3,5.2
	c-1.6,1.8-0.8,4.9,1,6.6s4.1,2.6,6.2,4s3.8,3.6,3.4,6.1"/>
</svg>
