<?xml version="1.0" encoding="UTF-8"?><svg id="Layer_1" xmlns="http://www.w3.org/2000/svg" width="98.46" height="98.46" viewBox="0 0 98.46 98.46"><defs><style>.cls-1{fill:none;stroke:#01142a;stroke-miterlimit:10;stroke-width:6.87px;}</style></defs><circle class="cls-1" cx="49.23" cy="49.23" r="45.8"/><path class="cls-1" d="m78.99,14.43c1.6,1.81-2.05,6.25-4.15,7.45-2.21,1.27-4.95,1.65-6.73,3.52s-.87,4.53,1.33,5.68c1.26.65,1.24,2.96,0,3.91-1.37,1.05-3.3.85-4.97.44s-3.44-.95-5.08-.44-3.5,4-1.77,4c1.4,0,1.91-1.17,3.07-.66,3.03,1.32,3.91,5.38,1.75,7.88-1.95,2.25-4.81,3.17-7.58,4.04-3.31,1.35,6.63.22,8.35-3.47,2.39.76,5,.13,7.31-.85s4.48-2.3,6.88-3.01c2.39-.7,5.16-.7,7.15.78,2.3,1.72,2.36,5.22.18,7.09-9.16,7.88-21.73,11.66-33.72,10.13-1.73-.22-3.53.3-4.8,1.5-3.43,3.22-.55,8.22,3.17,8.48,3.51.24,6.78,2.67,8.04,5.96s.43,7.28-2.02,9.8c-1.07,1.1-1.09,3.05-.05,4.18s-1.01-2.48.16-3.47"/><path class="cls-1" d="m48.71,6.2c.15,2.92,2.77,7.52.83,10.86s-6.03,5.27-9.84,4.65c-1.4-.23-2.69.83-3.52,1.98s-1.48,2.49-2.64,3.31-3.1.77-3.69-.53c-1.36-3.01-4.22-5.28-7.46-5.92s-6.75,3.64-9.15,2.64"/><path class="cls-1" d="m6.17,32.56c2.5,1.85,5.73,2.29,8.79,2.83,3.06.55,6.31,1.39,8.33,3.75s1.95,6.68-.86,8.02c-1.67.8-4.57,4.51-2.71,4.51,5.37,0,3.41,4.82,3.07,4.27-2.61-.49-5.45.46-6.96,1.97-.48.42-1.7.98-.41,2.82s3.14,3.23,4.41,5.09,1.81,4.56.32,6.24c-1.94,2.19-.9,5.81,1.18,7.87s4.92,3.13,7.34,4.77,4.59,4.34,4.08,7.22"/></svg>