<?xml version="1.0" encoding="UTF-8"?><svg id="Layer_1" xmlns="http://www.w3.org/2000/svg" width="109.61" height="85.96" viewBox="0 0 109.61 85.96"><defs><style>.cls-1,.cls-2{fill:none;}.cls-1,.cls-2,.cls-3,.cls-4,.cls-5{stroke:#01142a;}.cls-1,.cls-2,.cls-4,.cls-5{stroke-miterlimit:10;}.cls-1,.cls-5{stroke-width:6px;}.cls-2{stroke-width:5px;}.cls-4{stroke-width:2.3px;}.cls-4,.cls-5{fill:#fff;}</style></defs><path class="cls-1" d="m3,85.92c.25-18.13.49-36.27.04-54.12,3.15-4.96,6.3-9.92,9.72-13.77l.39-7.41"/><path class="cls-1" d="m32,85.92c-.25-18.13-.49-36.27-.04-54.12-3.15-4.96-6.3-9.92-9.45-14.88"/><path class="cls-1" d="m23.19,19.01l-.18-8.39"/><rect class="cls-2" x="10.07" y="2.5" width="15.94" height="6.25"/><path class="cls-1" d="m.03,82.63c11.19.11,22.38.22,33.57.33"/><line class="cls-1" x1="53.11" y1="85.92" x2="52.5" y2="3.65"/><line class="cls-1" x1="106.61" y1="85.92" x2="106" y2="3.65"/><line class="cls-1" x1="50.7" y1="82.94" x2="108.59" y2="82.94"/><line class="cls-1" x1="49.43" y1="6.27" x2="62.09" y2="6.27"/><line class="cls-1" x1="96.42" y1="6.27" x2="109.09" y2="6.27"/><line class="cls-1" x1="99.42" y1="4.76" x2="95.51" y2="22.84"/><line class="cls-1" x1="59.29" y1="4.26" x2="63.21" y2="22.34"/><line class="cls-1" x1="60.27" y1="22.34" x2="98.67" y2="22.34"/><circle class="cls-5" cx="41.04" cy="51.42" r="23"/><polygon class="cls-4" points="41.79 35.45 27.69 60.7 55.89 60.7 41.79 35.45"/><path class="cls-3" d="m39.94,56.2c0-1.08.78-1.92,1.84-1.92s1.86.84,1.86,1.92-.8,1.92-1.86,1.92-1.84-.84-1.84-1.92Zm.4-8.96l-.1-2.76h3.1l-.1,2.76-.44,5.94h-2.02l-.44-5.94Z"/></svg>