<svg width="17" height="17" viewBox="0 0 17 17" fill="none" xmlns="http://www.w3.org/2000/svg">
<path d="M10.4662 8.81688L7 11.6338V6L10.4662 8.81688Z" fill="white" stroke="white" stroke-width="1.5" stroke-linecap="round" stroke-linejoin="round"/>
<path d="M1 9.24741V7.75259C1 4.69415 1 3.16494 1.67912 2.181C2.35824 1.19706 3.42742 1.15447 5.56577 1.06928C6.57905 1.02892 7.6141 1 8.5 1C9.3859 1 10.421 1.02892 11.4342 1.06928C13.5726 1.15447 14.6417 1.19706 15.3209 2.181C16 3.16494 16 4.69415 16 7.75259V9.24741C16 12.3058 16 13.835 15.3209 14.8189C14.6417 15.8029 13.5726 15.8455 11.4343 15.9307C10.421 15.9711 9.3859 16 8.5 16C7.6141 16 6.579 15.9711 5.5657 15.9307C3.42738 15.8455 2.35823 15.8029 1.67911 14.8189C1 13.835 1 12.3058 1 9.24741Z" stroke="white" stroke-width="1.5"/>
</svg>
