<svg width="100" height="100" viewBox="0 0 100 100" fill="none" xmlns="http://www.w3.org/2000/svg">
<circle cx="50" cy="50" r="50" fill="#FF1054"/>
<path d="M55.0391 21.32C65.5191 21.32 74.3191 29.96 74.3191 41.56C74.3191 53.08 65.5191 61.8 55.0391 61.8C50.7991 61.8 47.3591 60.68 44.4791 58.92V79.56H31.4391V22.2H44.4791V24.2C47.3591 22.44 50.7991 21.32 55.0391 21.32ZM52.4791 51.16C57.7591 51.16 61.5991 46.92 61.5991 41.56C61.5991 36.2 57.7591 31.88 52.4791 31.88C49.6791 31.88 46.8791 32.76 44.4791 35.48V47.64C46.8791 50.36 49.6791 51.16 52.4791 51.16Z" fill="white"/>
</svg>
