<svg width="15" height="14" viewBox="0 0 15 14" fill="none" xmlns="http://www.w3.org/2000/svg">
<path d="M3.51906 0.813293C2.55132 0.813293 1.68915 1.23058 1.03812 1.88372C0.404692 2.53686 0 3.42586 0 4.44186C0 5.43972 0.404692 6.32872 1.03812 7L7.03812 13.1867L13.0381 7C13.6716 6.34686 14.0762 5.45786 14.0762 4.44186C14.0762 3.44401 13.6716 2.55501 13.0381 1.88372C12.4047 1.23058 11.5425 0.813293 10.5572 0.813293C9.58944 0.813293 8.72727 1.23058 8.07625 1.88372C7.44281 2.53686 7.03812 3.42586 7.03812 4.44186C7.03812 3.44401 6.63343 2.55501 6 1.88372C5.36657 1.23058 4.5044 0.813293 3.51906 0.813293Z" fill="white"/>
</svg>
