<?xml version="1.0" encoding="UTF-8"?><svg id="Layer_1" xmlns="http://www.w3.org/2000/svg" width="296" height="313.08" viewBox="0 0 296 313.08"><defs><style>.cls-1{fill:#6596cf;stroke:#01142a;stroke-miterlimit:10;stroke-width:20px;}.cls-2{fill:#1a44ff;}.cls-2,.cls-3,.cls-4,.cls-5,.cls-6,.cls-7{stroke-width:0px;}.cls-3{fill:#cfa365;}.cls-4{fill:#fff;}.cls-5{fill:#ff1054;}.cls-6{fill:#01142a;}.cls-7{fill:#000dff;}</style></defs><polygon class="cls-6" points="296 299.3 151.15 145.44 136.12 159.22 280.97 313.08 296 299.3"/><ellipse class="cls-1" cx="89.87" cy="88.82" rx="79.87" ry="78.82"/><path class="cls-3" d="m66.27,23.86c-31.51,9.76-53.3,42.93-49.09,74.68,4.22,31.75,33.97,58.5,67.01,60.23,33.03,1.74,65.61-21.74,73.35-52.86"/><ellipse class="cls-2" cx="97.88" cy="135.34" rx="2.93" ry="2.89"/><ellipse class="cls-2" cx="73.09" cy="105.03" rx="3.11" ry="3.07"/><ellipse class="cls-2" cx="111.27" cy="82.93" rx="3.85" ry="3.8"/><ellipse class="cls-2" cx="89.17" cy="99.53" rx=".7" ry="2.42"/><ellipse class="cls-2" cx="79.03" cy="55.29" rx="1.83" ry="1.81"/><ellipse class="cls-2" cx="54.77" cy="90.45" rx="1.65" ry="1.63"/><ellipse class="cls-2" cx="44.08" cy="125.49" rx="1.56" ry="1.54"/><ellipse class="cls-2" cx="45.63" cy="63.77" rx="3.71" ry="4.09"/><ellipse class="cls-2" cx="99.89" cy="28.97" rx="2.02" ry="1.99"/><ellipse class="cls-2" cx="137.2" cy="94.79" rx="1.83" ry="2.71"/><ellipse class="cls-2" cx="120.65" cy="130.82" rx="2.75" ry="1.63"/><ellipse class="cls-2" cx="145.33" cy="78.53" rx="1.65" ry="2.71"/><ellipse class="cls-2" cx="106.31" cy="62.03" rx="2.38" ry="2.35"/><ellipse class="cls-2" cx="70.09" cy="137.72" rx="3" ry="2.38"/><ellipse class="cls-2" cx="113.74" cy="109.46" rx="1.38" ry="1.36"/><polygon class="cls-2" points="100.47 97.4 103.44 93.59 97.99 93.27 100.47 97.4"/><polygon class="cls-4" points="59.11 44.13 57.86 48.38 61.82 47.66 59.11 44.13"/><polygon class="cls-4" points="60.68 51.91 61.7 47.69 57.99 48.4 60.68 51.91"/><polygon class="cls-4" points="137.54 51.32 135.52 55.28 139.55 55.28 137.54 51.32"/><polygon class="cls-4" points="146.17 112.28 146.25 121.08 142.54 120.41 146.17 112.28"/><polygon class="cls-4" points="91.54 75.08 89.53 79.03 93.56 79.03 91.54 75.08"/><polygon class="cls-4" points="91.66 83 93.43 79.03 89.65 79.07 91.66 83"/><polygon class="cls-4" points="52.45 115.26 50.44 119.21 54.47 119.21 52.45 115.26"/><polygon class="cls-4" points="52.57 123.18 54.34 119.21 50.56 119.25 52.57 123.18"/><polygon class="cls-5" points="133.49 78.65 131.46 84.72 135.52 84.72 133.49 78.65"/><polygon class="cls-5" points="116.31 144.74 114.3 148.69 118.33 148.69 116.31 144.74"/><polygon class="cls-5" points="86.59 152.44 89.89 144.95 82.86 145.01 86.59 152.44"/><polygon class="cls-5" points="70.77 44.08 68.76 48.03 72.79 48.03 70.77 44.08"/><polygon class="cls-5" points="70.89 52 72.66 48.03 68.88 48.07 70.89 52"/><polygon class="cls-5" points="71.54 105.5 69.52 109.45 73.55 109.45 71.54 105.5"/><polygon class="cls-5" points="71.65 113.42 73.42 109.45 69.65 109.49 71.65 113.42"/><polygon class="cls-7" points="130.91 106.86 128.9 110.81 132.93 110.81 130.91 106.86"/><polygon class="cls-7" points="131.03 114.78 132.8 110.81 129.02 110.85 131.03 114.78"/><polygon class="cls-7" points="86.56 41.28 89.87 34.77 82.84 34.84 86.56 41.28"/><polygon class="cls-7" points="31.92 90.79 29.9 94.75 33.93 94.75 31.92 90.79"/><polygon class="cls-7" points="32.04 98.72 33.81 94.75 30.03 94.78 32.04 98.72"/><ellipse class="cls-5" cx="106.43" cy="77.5" rx="2.49" ry="2.43"/><ellipse class="cls-5" cx="75.58" cy="88.34" rx="2.49" ry="2.45"/><ellipse class="cls-5" cx="131.92" cy="40.39" rx="1.56" ry="2.52"/><ellipse class="cls-4" cx="110.53" cy="47.97" rx="1.84" ry="1.81"/><ellipse class="cls-4" cx="117.91" cy="116.54" rx="1.56" ry="1.54"/><ellipse class="cls-4" cx="86.37" cy="125.17" rx="3.49" ry="3"/><ellipse class="cls-4" cx="148.35" cy="92.15" rx="1.37" ry="1.36"/><ellipse class="cls-4" cx="51.51" cy="82.32" rx="1.61" ry="1.59"/><ellipse class="cls-4" cx="72.55" cy="70.32" rx="3.03" ry="2.47"/></svg>