<?xml version="1.0" encoding="UTF-8"?><svg id="Layer_1" xmlns="http://www.w3.org/2000/svg" width="289.87" height="321.89" viewBox="0 0 289.87 321.89"><defs><style>.cls-1{fill:#4474ab;}.cls-1,.cls-2,.cls-3{stroke-width:0px;}.cls-2{fill:#bcd7f5;}.cls-3{fill:#6596cf;}</style></defs><path class="cls-3" d="m271.37,31.8c-2.4-5.98-5.25-12.16-10.46-15.94-9.49-6.89-23.71-2.86-31.46,5.95-7.75,8.81-10.43,20.94-11.88,32.6-1.46,11.66-2.03,23.67-6.58,34.5-6.19,14.71-20.18,26.1-35.96,28.07-12.97,1.62-26.66-3.59-35.25-13.33,8.27-11.45,16.54-22.9,24.81-34.34,8.52-11.79,13.76-18.53,16.86-32.76,3.1-14.23.05-25.1-12.32-32.7-11.57-7.1-24.66-3.6-35.72,4.27-11.06,7.88-19.53,19.74-26.49,31.43C71.09,99.69,42.4,151.29,12.79,214.75c-5.51,11.8-11.09,23.87-12.49,36.82-1.4,12.95,2.11,27.18,12.13,35.47,8.05,6.66,18.85,8.54,28.83,11.58,13.77,4.19,26.64,10.93,40.3,15.46,38.83,12.88,81.04,7.2,121.53,1.39,17.64-2.53,36.44-5.6,49.54-17.73,20.08-18.59,18.9-49.92,23.14-77.01,2.16-13.78,6.07-27.21,8.88-40.87,10.12-49.24,5.44-101.44-13.27-148.07Zm-141.11,54.19c-5.24-15.41-.31-23.92,4.36-39.55,2.39-7.98,10.22-19.14,20.43-23.29,5.73-2.33,12.91.29,11.72,12.06-2.14,21.18-22.51,34.45-36.51,50.78Zm136.02,15.01c-1.66,3.12-4.27,5.71-7.36,7.29-.67.55-1.38,1.05-2.15,1.49-4.99,2.85-10.9,3.45-14.88.28-1.38-.26-2.76-.96-4.01-2.23-2.84-2.89-5.34-5.94-6.72-9.81-1.6-4.5-1.06-9.67-1.07-14.38-.01-6.69,0-13.87,1.44-20.56.3-2.47.65-4.91.92-7.29.5-4.41.77-8.83,2.53-12.95.11-.29.23-.56.36-.83.03-.06.05-.13.08-.19,0,.01,0,.02,0,.04.05-.09.09-.18.14-.27.08-.19.17-.36.25-.54.42-1.24,1.12-2.42,2.02-3.38.02-.05.03-.1.05-.15.47-1.17,1.14-2.28,2.04-3.18.44-.44,3.49-1.94,3.63-2.1-.37.12-.75.26-1.14.43.89-.37,1.19-.48,1.14-.43.23-.08.45-.14.67-.2,4.29-2.52,7.8-1.62,10.53.81,1.96,1.16,3.18,2.96,3.7,4.93,1.2,2.26,2.09,4.74,2.64,6.94.3,1.2.5,2.41.63,3.62.76,1.91,1.42,3.81,2.06,5.58,2.92,8.19,4.3,16.2,4.82,24.85.45,7.57,1.41,15.25-2.31,22.23Z"/><path class="cls-2" d="m45.92,283.96c-14.41-2.99-28.91-13.01-30.82-27.66-1.13-8.65,2.29-17.17,5.64-25.22,9.9-23.82,19.84-47.71,32.57-70.13-3.21,16.34-9.21,31.99-13.25,48.15-4.04,16.16-6.06,33.4-1.25,49.34,2.23,7.39,5.86,14.26,9.46,21.08,1.15,2.17,2.3,4.35,3.44,6.52"/><path class="cls-2" d="m46.85,280.58c-9.67-2.16-19.52-7.04-24.95-15.68-6.83-10.87-1.89-23.03,2.58-33.77,9.65-23.25,19.48-46.47,31.85-68.42l-6.4-2.7c-4.48,22.1-13.72,43.05-16.56,65.51-1.35,10.66-1.25,21.63,1.56,32.06s8.62,20.47,13.76,30.22c2.11,3.98,8.15.45,6.04-3.53-4.87-9.21-10.33-18.41-13.06-28.54-2.88-10.71-2.63-22.07-.89-32.96,3.31-20.77,11.73-40.31,15.9-60.89.76-3.74-4.36-6.32-6.4-2.7-7.1,12.61-13.4,25.63-19.27,38.85-5.83,13.14-12.01,26.43-16.74,40.02-3.95,11.33-4.1,23.17,3.43,33.03,6.61,8.64,16.82,13.93,27.29,16.26,4.39.98,6.26-5.77,1.86-6.75h0Z"/><path class="cls-2" d="m51.15,283.55c-4.7-1.49-8.86-4.36-11.79-8.34-2.65-3.59-8.72-.1-6.04,3.53,4.07,5.52,9.41,9.47,15.98,11.55,4.3,1.37,6.15-5.39,1.86-6.75h0Z"/><path class="cls-1" d="m131.55,90.04c.84,2.63,1.68,5.27,2.52,7.9l5.85-3.41c-2.54-2.08-3.42-4.36-3.06-7.57h-7c.62,6.13,2.75,11.21,6.74,15.92,1.42,1.67,4.52,1.19,5.5-.71,3.33-6.48,7.88-12.07,12.2-17.89s8.45-12.29,12.2-18.73,7.65-13.38,11.11-20.23c2.46-4.87,4.15-9.92,2.54-15.36-3.67-12.38-16.79-13.93-27.34-9.9-10.08,3.85-20.25,11.72-23.76,22.19-1.43,4.28,5.32,6.12,6.75,1.86,2.83-8.46,12.28-15.11,20.47-17.89,5.36-1.82,12.03-2.61,15.7,2.69,3.3,4.78,1.3,9.63-1.13,14.24-5.09,9.65-10.31,19.27-16.24,28.44s-13.54,17.31-18.55,27.05l5.5-.71c-2.69-3.17-4.27-6.81-4.69-10.97-.46-4.51-6.49-4.48-7,0-.55,4.89,1.3,9.41,5.11,12.52,2.49,2.03,7.01.22,5.85-3.41l-2.52-7.9c-1.37-4.27-8.13-2.45-6.75,1.86h0Z"/><path class="cls-1" d="m137.57,37.34c2.48-9.23,11.2-17.01,20.85-17.9,5.14-.47,12.63.13,15.59,5,3.45,5.68,1.35,13.95-2.48,18.81l5.85,1.54c-.75-4.19,1.62-8.35,1.75-12.54.1-3.29-1.04-6.31-2.91-8.99-3.96-5.68-10.33-8.92-17.18-6.92-2.65.77-3.71,5.1-.84,6.4,12,5.41,5.25,22.67.3,30.95-3.28,5.49-7.8,10.34-11.95,15.18s-8.74,9.77-13.62,14.17c-.95.86-1.16,2.22-.9,3.41.64,2.92,1.69,5.54,3.2,8.12,1.34,2.3,4.69,2.24,6.04,0,4.89-8.08,9.86-16.02,16.96-22.36l-4.95-4.95c-4.17,4.59-8.33,9.18-12.5,13.77l4.95,4.95c6.2-7.37,12.41-14.75,18.61-22.12l-5.5-4.24-3.68,5.15c-2.36,3.3,2.73,6.95,5.5,4.24,9.39-9.2,15.97-20.63,19.22-33.36,1.01-3.97-4.18-5.9-6.4-2.7l-8.28,11.98,6.4,2.7c1.82-4.35,3.64-8.71,5.46-13.06l-6.87-.93c.72,10.47-5.41,20.75-11.93,28.52-2.9,3.45,1.5,7.89,4.95,4.95,7.36-6.28,12.62-14.2,15.83-23.31,1.5-4.28-5.2-6.04-6.75-1.86-3.75,10.08-9.63,19-17.3,26.53-3.22,3.16,1.73,8.11,4.95,4.95,8.56-8.4,14.92-18.39,19.1-29.62l-6.75-1.86c-2.82,8.01-7.58,14.72-14.03,20.22l4.95,4.95c7.66-9.12,14.83-21.12,13.98-33.47-.29-4.13-5.38-4.52-6.87-.93-1.82,4.35-3.64,8.71-5.46,13.06-1.62,3.87,4.29,5.74,6.4,2.7,2.76-3.99,5.52-7.99,8.28-11.98l-6.4-2.7c-2.97,11.62-8.85,21.88-17.42,30.27l5.5,4.24,3.68-5.15c2.3-3.21-2.94-7.28-5.5-4.24-6.2,7.37-12.41,14.75-18.61,22.12-2.86,3.4,1.89,8.32,4.95,4.95,4.17-4.59,8.33-9.18,12.5-13.77,3.04-3.35-1.59-7.95-4.95-4.95-7.53,6.72-12.87,15.21-18.06,23.77h6.04c-1.22-2.08-1.98-4.1-2.49-6.45l-.9,3.41c6.67-6,12.5-12.76,18.23-19.65,4.64-5.57,8.99-11.08,11.76-17.85,4.58-11.18,7.5-27.64-6.13-33.79l-.84,6.4c5.18-1.52,10.85,3.12,11.26,8.46s-2.49,9.72-1.53,15.1c.44,2.45,4.27,3.55,5.85,1.54,5.28-6.7,7.74-15.45,5.06-23.8s-9.75-11.17-17.57-11.91c-14.87-1.4-29.28,8.58-33.15,22.98-1.17,4.36,5.58,6.21,6.75,1.86h0Z"/><path class="cls-1" d="m167.91,23.34c-1.07,2.65-.63,5.75-.52,8.53.13,3.49,4.65,4.74,6.52,1.77.36-.57.71-1.14,1.07-1.7l-6.52-1.77c.11,1.63.58,2.67,1.59,3.93,1.18,1.48,3.72,1.23,4.95,0,1.46-1.46,1.18-3.47,0-4.95l.46,1.02c-.23-3.43-4.61-4.81-6.52-1.77-.36.57-.71,1.14-1.07,1.7l6.52,1.77c-.08-2.15-.55-4.64.27-6.67.71-1.75-.77-3.85-2.44-4.31-2-.55-3.59.68-4.31,2.44h0Z"/><path class="cls-1" d="m156.19,25.8c1.41-.07,2.84,0,4.23.09.62-.07.62-.08,0-.03-.57-.05-.61.03-.12.24.22.36,1.23.78,1.55,1.05,1.91,1.56,2.72,3.97,3.5,6.23,1.47,4.23,8.24,2.41,6.75-1.86-1.24-3.55-2.63-7.1-5.61-9.56-1.28-1.05-2.81-2.25-4.4-2.78-1.71-.57-4.12-.46-5.91-.37-4.48.22-4.51,7.22,0,7h0Z"/><path class="cls-1" d="m149.7,28.64c5.23-2.77,13.83-3.39,15.63,3.88,1.09,4.37,7.84,2.52,6.75-1.86-2.95-11.86-16.72-12.94-25.92-8.06-3.98,2.11-.45,8.16,3.53,6.04h0Z"/><path class="cls-3" d="m131.11,49.89c.8-2.35.16-4.49.57-6.89s1.13-4.75,1.39-7.24c.64-5.98,2.2-11.27,5.99-16.06,2.81-3.54-1.41-7.79-4.95-4.95-4.71,3.77-5.94,10.2-6.96,15.84-1.29,7.15-1.9,14.38-1.9,21.65,0,4.64,6.44,4.33,7,0,.48-3.7,1.77-7.37,2.37-11.08s1.1-7.67,2.29-11.34c2.6-7.97,8.87-13.89,16.2-17.61,4.02-2.04.48-8.08-3.53-6.04-7.87,4-14.83,10.49-18.28,18.73-1.82,4.35-2.56,8.96-3.3,13.59s-2.15,9.14-2.75,13.77h7c0-6.03.37-12.04,1.34-18,.79-4.85,1.39-11.27,5.46-14.53l-4.95-4.95c-3.6,4.54-6.27,9.58-7.36,15.33-.6,3.17-.65,6.38-1.34,9.54-.26,1.2-.74,2.3-.86,3.55-.17,1.66.37,3.24-.19,4.87-1.46,4.27,5.3,6.11,6.75,1.86h0Z"/><path class="cls-3" d="m118.97,78.58c3,9.51,5.38,19.6,9.99,28.49,2.39,4.61,9.18,18.78,16.28,15.79,8.29-3.49-3.83-14.24-6.22-17.55-6.07-8.41-10.71-17.56-12.62-27.82l-6.4,2.7c6.5,13.86,12.48,28.44,23.54,39.39,3.2,3.17,8.16-1.77,4.95-4.95-10.59-10.49-16.22-24.71-22.45-37.98-1.79-3.81-7.08-.95-6.4,2.7,1.4,7.52,4.2,14.62,7.99,21.25,1.9,3.32,4.03,6.5,6.31,9.56.77,1.04,7.13,8.01,6.98,8.39l2.44-2.44c-.54.15-4.87-6.63-5.48-7.58-2.01-3.15-3.8-6.46-5.15-9.95-2.75-7.11-4.74-14.59-7.04-21.86-1.35-4.28-8.11-2.45-6.75,1.86h0Z"/><path class="cls-1" d="m224.44,63.69c-1.08,7.3-1.07,14.61-1.06,21.97s.55,14.15,3.13,20.81c4.21,10.86,14.03,24.43,26.97,24,14.68-.49,18.33-14.23,20.23-26.21.53-3.33.97-6.7,1.02-10.08.05-3.82,1.21-7.66,1-11.43-.34-6.23-1.16-12.77-2.15-18.94l-6.75,1.86c1.15,6.62.82,13.39.23,20.05-.28,3.14-.64,6.27-.99,9.4-.32,2.89-.1,7.87-1.87,10.23l3.02-1.73-.19-.02,3.5,3.5c-.1-1.16.48-2.12.9-3.14.47-1.16-.13-2.55-.9-3.41l-.04-.05c-.81-.9-2.26-1.24-3.41-.9-5.59,1.66-9.72,8.02-14.89,10.7-4.88,2.53-11.53-1.37-15.14-4.91-5.9-5.79-6.88-13.14-6.56-21.01l-6.87.93c3.12,19.22,13.31,37.45,32.42,44.33,4.25,1.53,6.07-5.23,1.86-6.75-3.51-1.27-6.6-3.03-9.58-5.25l-2.7,6.4c3.62,1.18,7.09,1.56,10.87,1.12s4.81-5.48.93-6.87c-1.82-.66-3.64-1.18-5.53-1.61-4.4-.99-6.16,5.38-1.86,6.75,2.98.95,5.83,1.28,8.96.97,3.36-.33,4.88-4.57,1.77-6.52-2.29-1.43-4.51-2.35-7.14-2.92l-.93,6.87c2.98-.22,5.83-.69,8.71-1.52s3.33-4.77.84-6.4c-2.36-1.53-4.63-1.83-7.31-1-3.57,1.11-3.15,7.41.93,6.87,3.17-.42,5.89-1.17,8.8-2.51,3.65-1.68,1.05-7.45-2.7-6.4-3.09.86-5.19,2.49-7.01,5.1-2.25,3.23,2.96,7.31,5.5,4.24,7.33-8.86,12.61-19.12,13.92-30.63.45-3.91-6.07-4.77-6.87-.93-1.02,4.89-3.49,10.19-5.73,14.63-1.2,2.38-2.43,5.03-4.46,6.82-2.82,2.48-6.86,2.91-10.43,3.42-4.44.63-2.55,7.38,1.86,6.75,7.88-1.12,13.6-3.7,17.66-10.75,3.25-5.64,6.52-12.64,7.85-19l-6.87-.93c-1.09,9.5-5.84,18.4-11.87,25.68l5.5,4.24c.66-1.07,1.6-1.7,2.82-1.89l-2.7-6.4c-1.7.78-3.41,1.31-5.27,1.56l.93,6.87,1.92.29.84-6.4c-2.27.65-4.49,1.09-6.84,1.27-3.7.28-5.03,5.98-.93,6.87,2.05.45,3.69,1.1,5.47,2.22l1.77-6.52c-2.52.25-4.67.05-7.1-.72l-1.86,6.75c1.89.42,3.7.95,5.53,1.61l.93-6.87c-3.18.37-5.97.12-9.01-.87-4.06-1.32-5.66,4.19-2.7,6.4,3.48,2.6,7.18,4.49,11.25,5.96l1.86-6.75c-16.78-6.05-24.84-22.86-27.53-39.44-.66-4.04-6.72-2.84-6.87.93-.37,9,.97,16.5,6.66,23.72,4.03,5.12,11.44,9.87,18.06,10.16,4.84.22,8.13-2.2,11.83-4.95,2.04-1.52,4.03-3.1,6.04-4.66.69-.54,3.68-2.55,2.85-2.3l-3.41-.9.04.05-.9-3.41c.44-1.08-.61,1.41-.71,1.81-.27,1-.52,2.15-.44,3.2.17,2.05,1.48,3.27,3.5,3.5,6.46.72,6.02-15.19,6.42-18.85,1.03-9.32,1.74-18.63.14-27.93-.77-4.45-7.46-2.54-6.75,1.86.8,4.96,1.08,10.03,1.59,15.02.47,4.6-.56,9.7-.73,14.4-.32,9.38-1.5,27.44-13.89,28.31-11.18.79-19.74-14.32-22.07-23.61-1.32-5.24-1.36-10.52-1.36-15.88,0-6.13-.09-12.3.81-18.38.65-4.41-6.09-6.31-6.75-1.86h0Z"/><path class="cls-3" d="m222.8,46.42c-2.75,11.01-2.57,22.62-3.09,33.9-.21,4.6,6.48,4.35,7,0,1.28-10.69,2.57-21.37,3.85-32.06h-7c-.07,7.83-1.88,15.51-3.32,23.17l6.75,1.86c.97-5.79,1.93-11.59,2.9-17.38l-6.87-.93c-.66,5.94-1.33,11.89-1.99,17.83-.44,3.91,6.07,4.77,6.87.93,1.33-6.33,2.66-12.67,3.99-19,.92-4.38-5.47-6.22-6.75-1.86-3.92,13.32-5.58,27.15-5.62,41.02-.04,11.6.11,24.38,7.03,34.24,2.57,3.66,8.64.17,6.04-3.53-6.54-9.33-6.2-21.67-6.06-32.6.17-12.64,1.79-25.12,5.36-37.26l-6.75-1.86c-1.33,6.33-2.66,12.67-3.99,19l6.87.93c.66-5.94,1.33-11.89,1.99-17.83.43-3.89-6.23-4.82-6.87-.93-.97,5.79-1.93,11.59-2.9,17.38-.73,4.38,5.91,6.32,6.75,1.86,1.55-8.27,3.5-16.58,3.57-25.03.04-4.62-6.48-4.35-7,0-1.28,10.69-2.57,21.37-3.85,32.06h7c.49-10.64.25-21.64,2.84-32.04,1.09-4.37-5.66-6.24-6.75-1.86h0Z"/><path class="cls-3" d="m217.98,100.65c2.4,8.69,5.53,17.09,9.32,25.27,1.89,4.08,7.93.53,6.04-3.53-3.53-7.63-6.37-15.49-8.61-23.6-1.2-4.34-7.95-2.49-6.75,1.86h0Z"/><path class="cls-3" d="m264.47,48.29c1.01,4.78,2.27,9.46,3.82,14.09,1.42,4.25,7.85,2.54,6.75-1.86-.81-3.23-1.94-6.27-3.36-9.28-1.81-3.84-7.03-.93-6.4,2.7.69,3.97,2.37,7.36,2.89,11.34s2.31,7.86,3.64,11.63c1.47,4.2,8.07,2.5,6.75-1.86-2.35-7.73-4.03-16.33-7.88-23.48-1.87-3.47-7.58-1.11-6.4,2.7,5.71,18.32,9.92,36.25,12.08,55.33.5,4.43,7.51,4.48,7,0-2.23-19.73-6.42-38.25-12.33-57.19l-6.4,2.7c3.54,6.57,5.01,14.69,7.17,21.81l6.75-1.86c-1.41-4.03-3.01-7.85-3.44-12.09-.4-3.85-2.42-7.08-3.08-10.88l-6.4,2.7c1.17,2.48,2,4.95,2.66,7.61l6.75-1.86c-1.54-4.63-2.81-9.31-3.82-14.09-.93-4.41-7.68-2.54-6.75,1.86h0Z"/><path class="cls-3" d="m132.98,50.6c3.41-8.01,4.48-16.45,9.51-23.75,5.76-8.36,12.99-12.93,23.29-13.71,4.46-.34,4.5-7.34,0-7-10.02.76-19.51,4.39-25.87,12.42-2.92,3.69-5.74,7.65-7.59,11.99-2.28,5.35-3.1,11.16-5.38,16.51-1.74,4.1,4.28,7.67,6.04,3.53h0Z"/></svg>