<?xml version="1.0" encoding="UTF-8"?><svg id="Layer_1" xmlns="http://www.w3.org/2000/svg" width="304.08" height="323.68" viewBox="0 0 304.08 323.68"><defs><style>.cls-1{fill:#1a44ff;}.cls-1,.cls-2,.cls-3,.cls-4,.cls-5,.cls-6,.cls-7{stroke-width:0px;}.cls-2{fill:#4474ab;}.cls-3{fill:#e00040;}.cls-4{fill:#bcd7f5;}.cls-5{fill:#6596cf;}.cls-6{fill:#fff;}.cls-7{fill:#ff1054;}</style></defs><path class="cls-7" d="m170.89,214.13c.5-1.55.53.46.9-1.16.33-1.45,3-6.8,3.56-8.08-.01-.08.54,1.45.53,1.31-.1-.67-.99-.25-.93-.92.15-1.09-.5-.88.03-1.82,1.03-1.87,1.68-2.96,2.83-4.76,2.09-3.27,3.3-5.71,5.7-8.74,2.32-2.92,4.45-6.02,7.36-8.44,3.11-2.58,6.72-4.52,10.33-6.35.73-.7,1.51-1.3,2.49-1.77,1.24-.6,2.66-.65,3.9-1.16,2.44-1,4.49-2.07,7.2-2.39,3.63-.42,6.89.17,10.19.93,1.8-.56,3.62-1.05,5.5-1.44-16.26-12.75-32.52-25.5-48.78-38.25-9.03-7.08-18.1-14.19-28.01-19.99-6.57-3.84-13.49-7.1-19.88-11.24-14.37-9.32-25.52-22.75-36.42-35.96-10.71-12.98-21.95-27.29-22.5-44.1l.02-.79c-6.48,8.54-12.96,17.07-19.44,25.61-4.42,5.82-12.92,16.99-15.32,23.89-5.7,16.36,5.66,29.7,17.55,42.3,11.88,12.6,27.67,20.64,42.75,29.17,20.15,11.4,39.57,24.1,58.1,37.98,2.72,2.04,5.45,4.13,7.57,6.8,7.55,9.5,10.37,10.96,7.72,22.85"/><path class="cls-7" d="m173.92,215.9l.3-.61-3.95,1.61c.12.03.25.07.37.09,1.94.46,3.66-.61,4.31-2.44.95-2.72,2.24-5.27,3.43-7.89l-6.4-.84c.29.72.56,1.44.89,2.15l5.5-4.24c-.3-.38-1.29-1.44-1.85-1.29,1.5,2.44,2.11,2.98,1.84,1.62-.19-.59-.07-.63.37-.13,1.64-1.27,3-4.91,4.11-6.73,3.3-5.41,7.3-11.13,12.59-14.75,4.98-3.4,10.34-5.91,15.91-8.03,3.7-1.41,7.22-1.29,11.07-.64,3.37.57,5.65-.32,9.01-1.08,2.38-.54,3.62-4.22,1.54-5.85-16.26-12.75-32.51-25.5-48.78-38.25-6.89-5.4-13.78-10.83-21.05-15.71-7.64-5.13-15.89-9.1-23.8-13.77-15.44-9.09-27.08-22.74-38.36-36.39-10.05-12.17-22.88-26.92-22.55-43.73.08-3.8-4.58-4.32-6.52-1.77-10.55,13.9-22.35,27.48-31.29,42.51s-5.57,28.7,4.26,41.6c10.87,14.27,24.45,24.88,39.89,33.79,17.11,9.88,34.24,19.5,50.62,30.59,9.03,6.11,19.71,12.19,27.16,20.21,2.68,2.88,5.82,6.35,7.63,9.87s1.07,7.18.3,10.86c-.92,4.39,5.82,6.27,6.75,1.86,1.21-5.75,1.81-11.37-1.23-16.66-3.47-6.05-8.83-11.72-14.31-15.91-16.09-12.31-33.09-23.53-50.52-33.84-15.81-9.35-33.15-17.18-46.81-29.69-11.67-10.69-27.79-27.54-20.12-44.67,3.26-7.27,8.53-13.8,13.31-20.11,6.78-8.97,13.6-17.92,20.4-26.88l-6.52-1.77c-.24,12.21,5.96,23.95,12.81,33.64,7.92,11.2,17.01,21.96,26.42,31.92,10.13,10.72,21.44,18.73,34.37,25.71,13.73,7.41,25.9,16.76,38.15,26.36,14.95,11.72,29.9,23.44,44.84,35.16l1.54-5.85c-2.54.58-4.37,1.03-6.94.77-2.03-.21-3.97-.58-6.03-.51-3.45.11-6.15,1.22-9.33,2.39-7.1,2.61-14.46,6.19-20.05,11.5s-9.37,11.79-13.19,18.05c-1.32,2.16-2.89,4.24-2.61,6.87.09.83.25,1.68.72,2.4.27.42,2.62,2.95,1.29,1.24,2.61,3.34,7.05-.91,5.5-4.24-.05-.16-.11-.32-.18-.47-.98-2.44-5.01-3.89-6.4-.84s-2.98,6.27-4.14,9.56l4.31-2.44c-.12-.03-.25-.06-.37-.09-1.41-.38-3.27.23-3.95,1.61l-.3.61c-1.98,4.03,4.05,7.58,6.04,3.53h0Z"/><path class="cls-5" d="m6.08,73.66c-3.31,8.4-.65,18.21,4.58,25.56s12.7,12.76,20.04,18.02c10.35,7.42,20.7,14.84,31.05,22.26,22.69,16.27,45.43,32.57,69.69,46.37,14.11,8.03,29.51,15.96,37.36,30.17,5.25-9,2.38-20.93-3.98-29.18-6.36-8.26-15.57-13.72-24.37-19.3-8.48-5.38-16.79-11.03-25.09-16.68-14.66-9.98-29.35-19.98-43.03-31.28-14.53-12-28.78-27.36-29.51-46.19-.15-3.94.31-7.87.77-11.78"/><path class="cls-5" d="m2.71,72.73c-4.42,12.67,1.44,25.66,10.38,34.75,10.65,10.83,24.52,19,36.81,27.81,26.24,18.81,52.33,38.01,80.45,53.98,13.24,7.52,27.57,14.89,35.44,28.54,1.28,2.21,4.8,2.34,6.04,0,7.7-14.46.12-30.58-11.3-40.5-6.58-5.72-14.18-10.1-21.48-14.8-8.45-5.45-16.75-11.13-25.06-16.79-16.34-11.14-33.19-22.25-47.52-35.97-6.25-5.98-12-12.64-15.87-20.42-4.46-8.98-4.63-17.91-3.5-27.69.52-4.47-6.49-4.43-7,0-1.05,9.03-1.08,17.59,2.23,26.18,2.66,6.91,6.74,13.08,11.49,18.73,11.43,13.61,26.58,24.22,41,34.41,15.76,11.13,31.79,21.91,48.06,32.27,12.99,8.27,32.35,23.33,22.91,41.05h6.04c-8.11-14.05-22.25-22.16-35.96-29.92-16.91-9.57-33.15-20.2-49.07-31.33-16.16-11.29-32.1-22.87-48.12-34.36-13.78-9.88-36.33-23.74-29.22-44.08,1.49-4.26-5.27-6.09-6.75-1.86h0Z"/><path class="cls-4" d="m223.84,242.71c-10.73,4.76-23.19,6.92-34.23,2.95-11.05-3.97-19.9-15.22-18.46-26.87.55-4.48,2.51-8.67,4.74-12.59,4.78-8.4,10.97-15.98,18.25-22.34,6.95-6.07,15.09-11.1,24.14-12.92,9.05-1.81,19.1-.05,26.02,6.06,10.54,9.29,11.2,26.07,5.76,39.02-6.24,14.85-19.54,26.55-35.07,30.86"/><path class="cls-4" d="m222.08,239.69c-14.37,6.16-33.78,7.5-43.76-6.93s3.24-31.37,13.35-41.74c10.74-11.02,26.5-21.12,42.45-15.85,15.14,5,18.18,22.31,14.01,35.93-4.82,15.73-18.52,27.85-34.07,32.4-4.31,1.26-2.48,8.02,1.86,6.75,17.14-5.02,31.68-17.79,38.03-34.61,5.93-15.69,3.27-36.69-12.92-45.11-17.91-9.3-37.74,0-51.26,12.56-12.71,11.79-28.21,31.5-19.57,49.56,10.26,21.45,36.45,21.2,55.41,13.07,4.13-1.77.57-7.8-3.53-6.04h0Z"/><path class="cls-4" d="m239.61,251.89c.84-1.69,2.15-3.24,3.84-3.94,2.25-.94,3.7-3.89,1.54-5.85-1.59-1.45-3.46-1.65-5.36-.7l4.79,4.79c.31-.5.62-1.01.93-1.51,2.36-3.85-3.69-7.37-6.04-3.53-.31.5-.62,1.01-.93,1.51-1.94,3.16,1.81,6.27,4.79,4.79l.28-.14-1.77.48-.32-.04-1.54-.9.23.21,1.54-5.85c-3.46,1.44-6.33,3.75-8.02,7.16-.84,1.69-.45,3.79,1.26,4.79,1.55.91,3.95.44,4.79-1.26h0Z"/><path class="cls-4" d="m234.86,250.35c10.29,2.51,19.04,9.34,21.31,20.08,2.23,10.59-3,21.89.1,32.26,3.04,10.17,13.77,16.67,24.36,17.36,6.2.4,12.94-1.11,17.02-5.79s4.1-12.99-1.07-16.43c2.33,1.2,3.25,4.24,2.69,6.8s-2.29,4.71-4.15,6.55c-2.41,2.39-5.22,4.48-8.46,5.47s-6.99.72-9.74-1.27c4.1,1.65,8.98,1.2,12.71-1.17-3.8,1.4-7.91,1.96-11.95,1.61,5.23-.06,10.44-1.33,15.1-3.69-8.31,4.48-19.17.03-24.91-7.47-3.66-4.79-5.83-10.79-5.58-16.81.39-9.23,6.18-18.87,2.04-27.13-1.54-3.07-4.26-5.35-6.9-7.55-2.5-2.07-5-4.15-7.5-6.22-3.28-2.72-7.07-5.61-11.3-5.16"/><path class="cls-4" d="m233.93,253.72c6.05,1.6,11.78,4.56,15.48,9.77,4.36,6.13,4.07,13.44,3.28,20.57-1.42,12.84-1.21,24.72,10.04,33.07,8.82,6.54,22.27,8.98,32.25,3.6,8.96-4.83,13.07-18.39,4.06-25.38l-4.24,5.5c4.17,2.95-3.28,9.12-5.39,10.56-3.36,2.28-7.12,3.15-10.74.95l-2.7,6.4c5.29,1.8,10.55,1.2,15.4-1.53,3.4-1.91,1.13-7.67-2.7-6.4s-7.15,1.69-11.02,1.48v7c5.98-.22,11.46-1.61,16.87-4.16l-3.53-6.04c-8.53,4.09-18.26-2.12-22.36-9.66-5.19-9.55-1.03-18.11.32-27.95,1.14-8.28-1.69-14.48-7.93-19.85s-13.51-13.47-22.41-13.36c-4.5.05-4.51,7.05,0,7,5.54-.07,10.09,5.18,14.08,8.49s8.64,6.44,9.46,11.91c.74,4.91-1.24,9.93-2.28,14.67-.96,4.42-1.45,8.83-.66,13.32,2.76,15.67,19.71,28.96,35.31,21.48,4.07-1.95.52-7.96-3.53-6.04-4.29,2.03-8.6,3.03-13.34,3.21s-4.49,6.75,0,7,8.66-.32,12.88-1.73l-2.7-6.4c-3.29,1.85-6.45,2.03-10.01.82-3.84-1.3-6.01,4.38-2.7,6.4,7.56,4.59,15.94,1.42,21.91-4.24,5.67-5.37,8.73-14.07,1.28-19.35-3.21-2.27-7.39,3.06-4.24,5.5,4.46,3.46,3.56,9.78-.67,13.09s-10.72,3.78-16,2.72c-11.45-2.3-19.03-10.83-18.63-22.62.36-10.76,3.44-21.18-1.95-31.27-4.3-8.04-12.45-12.97-21.05-15.24-4.36-1.15-6.22,5.6-1.86,6.75h0Z"/><path class="cls-7" d="m237.51,240.47c3.59-3.2,7.88-5.61,12.48-7.02,1.2-.37,2.44-.67,3.69-.53,1.28.14,2.46.74,3.59,1.35,6.37,3.4,12.55,7.42,17.17,12.96s7.57,12.79,6.7,19.96c-.42,3.45-1.68,6.73-2.58,10.09-1.49,5.57-1.96,11.42-1.38,17.16.42,4.19,1.77,8.84,5.5,10.79,2.34,1.23,5.36,1.06,7.55-.42,1.33-.89,2.4-2.42,2.15-4s-2.34-2.73-3.57-1.7c-.79-1.65.85-3.7,2.67-3.77s3.44,1.33,4.22,2.98c1.78,3.74-.18,8.56-3.73,10.68-3.55,2.12-8.19,1.82-11.9,0s-6.61-4.98-8.96-8.39c-1.97-2.85-3.64-6-4.19-9.41-1.42-8.77,4.67-17.72,2.36-26.3-1.36-5.07-5.4-8.92-9.32-12.43-5.76-5.15-12.18-10.42-19.88-11.07"/><path class="cls-7" d="m239.99,242.94c2.77-2.34,5.95-4.45,9.41-5.61,3.82-1.29,5.79-.29,9.02,1.58,5.67,3.28,11.28,7.25,15.01,12.76,4.14,6.12,5.16,12.6,3.23,19.67-1.71,6.26-3.27,12.23-3.2,18.78.08,8.6,3.37,21.27,14.65,19.2,3.86-.71,7.73-3.7,7.76-7.92s-4.06-7.13-7.98-5.66l4.31,2.44c.58,2.99,1.06,5.85-1.98,7.79-2.4,1.53-5.91,1.13-8.37,0-4.19-1.93-7.4-6.13-9.55-10.08-4.89-9,1.24-17.86,1-27.19-.21-8.26-5.61-14.07-11.47-19.26-6.41-5.68-13.05-10.44-21.73-11.54-4.46-.57-4.42,6.44,0,7,7.81.99,14.3,6.94,19.75,12.2,5.97,5.77,7.23,11.19,5.41,19.17-1.39,6.09-3.03,12.19-1.07,18.37,1.86,5.84,5.92,11.52,10.79,15.24,8.25,6.31,23.99,5.25,24.86-7.59.31-4.63-2.42-9.77-7.4-10.31s-7.85,3.62-6.98,8.08c.34,1.74,2.63,3.07,4.31,2.44-3.46,1.29-6.82-.76-8.07-3.85-.97-2.41-1.15-5.08-1.22-7.65-.16-5.59.9-10.78,2.45-16.11,2.74-9.45,2.16-18.38-3.44-26.73-5.03-7.5-12.96-13.27-21.01-17.18-8.13-3.95-17.22,1.78-23.42,7.04-3.44,2.92,1.53,7.85,4.95,4.95h0Z"/><path class="cls-2" d="m48.22,91.7c-3.53,3.55-4.86,8.86-4.51,13.85s2.2,9.76,4.27,14.32c2.36,5.18,5.11,10.32,9.25,14.23,5.77,5.46,16.56,8.6,19.84,15.83-6.71-4.18-15.42-10.63-22.33-15.42-10.66-7.38-21.31-14.76-31.97-22.13-2.13-1.48-4.27-2.96-6.18-4.72-4.05-3.73-6.89-8.56-9.59-13.35-2.73-4.84-5.31-11.12-1.99-15.57,2.4-3.22,6.95-3.92,10.96-3.58,6.67.57,13.13,3.34,18.13,7.79,2.26-7.04,7.63-16.38,11.78-22.51-3.35,9.25-3.97,22.73,1.75,30.73"/><path class="cls-2" d="m45.75,89.23c-9.71,10.9-4.65,25.64,1.47,37.03,3.02,5.62,6.89,10.36,12.21,13.91s11.66,5.83,14.62,11.53l4.79-4.79c-18.01-11.38-35.19-24.32-52.7-36.45-8.19-5.67-15.81-13.61-18.62-23.52-2-7.04,3.65-8.92,9.52-8.14,5.43.73,10.42,3.1,14.59,6.62,2.06,1.74,4.96,1.07,5.85-1.54,2.62-7.73,6.91-14.91,11.43-21.67l-6.4-2.7c-3.62,10.6-4.29,23.74,2.11,33.43,2.47,3.75,8.53.24,6.04-3.53-5.41-8.21-4.45-19.13-1.4-28.04,1.34-3.92-4.29-5.85-6.4-2.7-4.86,7.28-9.31,15.02-12.13,23.34l5.85-1.54c-7.65-6.47-21.15-12.53-30.87-6.87-11.58,6.74-2.81,21.76,2.57,29.55,7.71,11.16,20.98,17.96,31.91,25.53,11.68,8.09,23.11,16.69,35.12,24.28,3.11,1.96,6.32-1.83,4.79-4.79-4.59-8.84-15.12-10.85-21.59-17.75-4.47-4.77-7.6-11.54-9.67-17.67s-2.81-13.32,1.86-18.56c2.99-3.35-1.95-8.32-4.95-4.95h0Z"/><path class="cls-3" d="m57.98,59.75c-1.63,10.94-5.84,18.53,16.65,48.08,7.88,10.35,19.05,16.95,30.59,24.49,8.51,5.56,19.31,12.1,28.24,17.39,5.78,3.43,10.59,6.53,15.48,10.33,7.73,6.02,13.17,11.77,19.4,19.34,2.14,2.6,4.87,6.62,5.73,9.87s3.89,11.38,1.3,13.52c-5.48-14.88-22.17-32.83-35.28-41.76-18.07-12.31-36.13-24.62-54.2-36.93-4.75-3.23-10.05-9.26-14.56-15.9-4.65-6.84-8.45-14.33-9.92-20.07l-4,2.16"/><path class="cls-3" d="m54.61,58.82c-.93,6.03-2.08,11.71-.94,17.82,2.04,11.01,9.15,21.05,15.64,29.87,19.34,26.29,52.49,36.77,77.53,56.3,6.87,5.36,13,11.62,18.49,18.39,2.57,3.16,4.52,6.31,5.72,10.2.44,1.43,2.93,7.65,1.85,8.9l5.85,1.54c-9.28-24.01-30.4-39.43-50.85-53.36-13.13-8.95-26.42-17.71-39.42-26.85-10.96-7.71-20.1-21.56-23.69-34.43-.62-2.23-3.16-3.16-5.14-2.09l-4,2.16c-3.96,2.14-.43,8.19,3.53,6.04l4-2.16-5.14-2.09c3.37,12.06,10.98,23.8,19.73,32.66,4.76,4.82,10.64,8.32,16.21,12.11,6.84,4.66,13.69,9.32,20.53,13.99,21.77,14.83,47.46,29.95,57.48,55.89.87,2.24,3.97,3.73,5.85,1.54,3.48-4.03,1.7-9.68.38-14.27-1.78-6.21-4.89-11.11-9.04-16.03-10.5-12.47-22.89-21.67-36.83-29.97-14.21-8.47-28.76-16.96-42.03-26.87-11.86-8.86-21.99-22.3-27.69-36.02-3.09-7.44-2.46-13.72-1.27-21.4.68-4.41-6.07-6.31-6.75-1.86h0Z"/><path class="cls-4" d="m177,217.22c-.27-1.7,1.22-3.75,1.71-5.39.43-1.45.59-2.98,1.03-4.43,1.21-3.92,3.89-7.09,6.49-10.17l-5.5-4.24c-2.64,4.4-6.6,8.41-8.75,13-1.9,4.05,4.13,7.61,6.04,3.53,2.12-4.52,6.14-8.65,8.75-13,1.99-3.32-2.88-7.34-5.5-4.24-3.22,3.82-6.42,7.72-8.04,12.53-.85,2.53-1.22,5.12-2.18,7.63s-1.24,4.01-.81,6.64c.72,4.44,7.46,2.55,6.75-1.86h0Z"/><path class="cls-5" d="m90.83,151.7c-1.03-.64-1.66-1.55-2.75-2.16-2.65-1.49-4.98-2.56-7.23-4.74-3.49-3.38-6.03-7.54-8.58-11.63l-4.79,4.79c3.3,2.52,5.03,5.61,6.83,9.21.5,1,4.56,6.95,4.84,5.86l5.85-1.54c-4.27-3.96-8.42-8.03-12.44-12.25-3.71-3.9-9.86-8.83-10.97-14.25-.9-4.41-7.65-2.54-6.75,1.86,1.21,5.89,6.32,10.42,10.25,14.66,4.79,5.17,9.79,10.13,14.95,14.92,1.88,1.74,5.18,1.09,5.85-1.54,1.28-5.04-3.52-7.2-5.54-11.25-2.4-4.79-5.05-8.44-9.34-11.72-2.86-2.18-6.53,1.99-4.79,4.79,2.99,4.81,6.06,9.75,10.26,13.62,3.2,2.95,7.21,5.17,10.82,7.43,3.83,2.39,7.35-3.66,3.53-6.04h0Z"/><path class="cls-3" d="m83.97,45.04c-3.68-7.9-6.22-16.33-7.51-24.95-6.65,8.48-13.29,16.96-19.94,25.44-4.04,5.15-8.19,10.56-9.45,16.98-.76,3.9-.76,11.5-.01,15.4,2.79,14.55,22.18,33.81,34.2,43.05-5.55-5.64-19.39-20.29-20.07-33.77-.18-3.51-1.08-7.27-.04-10.62.7-2.26,4.56-8.4,5.95-10.31,6.05-8.31,9.68-11.97,16.44-19.72"/><path class="cls-3" d="m86.99,43.27c-3.5-7.7-5.83-15.76-7.16-24.11-.39-2.47-4.29-3.53-5.85-1.54-8.15,10.4-16.91,20.55-24.45,31.41-5.98,8.61-7.65,18.45-6.02,28.76,1.45,9.2,7.47,17.38,13.26,24.39,6.49,7.86,13.96,15,22.01,21.26,3.45,2.68,8.2-1.63,4.95-4.95-9.41-9.59-18.05-20.15-19.28-33.97-.38-4.32-.07-7.2,2.1-10.91,1.41-2.42,2.94-4.76,4.61-7.01,4.57-6.18,9.79-11.81,14.85-17.59,2.95-3.38-1.98-8.35-4.95-4.95-5.64,6.45-11.43,12.77-16.46,19.72s-7.88,12.35-7.14,20.74c1.4,15.83,10.48,27.86,21.33,38.92l4.95-4.95c-6.88-5.34-13.28-11.34-19.07-17.84s-11.98-14.05-13.99-22.6c-2.19-9.31-.09-18.49,5.39-26.16,7.19-10.06,15.25-19.59,22.87-29.33l-5.85-1.54c1.43,8.98,4.11,17.51,7.86,25.78,1.86,4.1,7.9.54,6.04-3.53h0Z"/><path class="cls-4" d="m6.03,74.45c3.35-3.79,9.02-4.8,13.98-3.81s9.4,3.66,13.72,6.28c.05-7.55,4.68-14.2,9.13-20.3,12.89-17.69,25.77-35.38,38.66-53.07-13.57,5.16-25.88,13.62-35.55,24.46-5.18,5.8-9.58,12.24-14.5,18.26-8.1,9.91-17.54,18.62-26.95,27.3"/><path class="cls-4" d="m8.51,76.93c6.91-6.89,16.78-1.01,23.46,3.02,2.37,1.43,5.14-.44,5.27-3.02.32-6.58,3.99-12.02,7.7-17.21,4.36-6.11,8.84-12.14,13.25-18.2,8.79-12.06,17.57-24.12,26.36-36.18,1.74-2.38-1.18-6.22-3.95-5.14-15.62,6.1-29.33,15.79-40,28.77-5.93,7.21-11.26,14.85-17.59,21.74s-13.79,13.8-20.96,20.41c-3.32,3.06,1.64,8,4.95,4.95,6.72-6.2,13.45-12.4,19.71-19.07s11.18-13.38,16.59-20.27c10.4-13.24,23.39-23.62,39.15-29.77l-3.95-5.14c-9.57,13.13-19.13,26.27-28.7,39.4-7.72,10.6-18.88,21.93-19.56,35.73l5.27-3.02c-9.69-5.85-22.5-11.34-31.94-1.93-3.2,3.18,1.75,8.13,4.95,4.95h0Z"/><path class="cls-2" d="m7.01,82.67c1.41-4.65,6.09-4.49,9.94-2.82,4.09,1.78,7.66-4.25,3.53-6.04-4.42-1.92-8.31-2.95-12.96-1.11-4.01,1.58-6.02,4.04-7.26,8.12-1.31,4.32,5.44,6.17,6.75,1.86h0Z"/><path class="cls-3" d="m68.85,96.3c-5.44-10.69-4.19-23.25,2.73-32.95,2.62-3.67-3.45-7.17-6.04-3.53-8.4,11.77-9.24,27.2-2.73,40.01,2.04,4.02,8.08.48,6.04-3.53h0Z"/><ellipse class="cls-1" cx="254.74" cy="247.23" rx="4.42" ry="4.25" transform="translate(-100.09 236.62) rotate(-42.43)"/><ellipse class="cls-1" cx="275.46" cy="276.96" rx="2.1" ry="2.02" transform="translate(-114.72 258.39) rotate(-42.43)"/><polygon class="cls-6" points="275.12 258.69 278.77 260.66 273.68 262.7 275.12 258.69"/><ellipse class="cls-7" cx="262.2" cy="266.01" rx="1.99" ry="2.5" transform="translate(-97.96 167.05) rotate(-30.05)"/><ellipse class="cls-6" cx="260.01" cy="271.67" rx="1.46" ry="1.42" transform="translate(-115.95 263.42) rotate(-45)"/><ellipse class="cls-6" cx="260.01" cy="237.14" rx="1.46" ry="1.25" transform="translate(-91.53 253.31) rotate(-45)"/><path class="cls-5" d="m231.23,250.96c-6.52-5.28-12.74-10.94-18.61-16.94-2.08-2.13-2.79-5.26-1.79-8.06,1.6-4.48,5.07-8.44,8.5-11.91,2.77-2.81,5.7-5.6,9.31-7.2s8.07-1.81,11.33.42c1.84,1.26,3.13,3.15,4.38,5,4.45,6.6,8.9,13.2,13.35,19.8-4.06-.19-12.06,4.48-15.02,7.26-4.89,4.6-6.36,7.06-8.71,13.29"/><path class="cls-4" d="m219.21,237.36c2.03-10.84,11.95-23.06,24.19-21.22,4.41.66,6.31-6.08,1.86-6.75-15.96-2.39-29.98,11.01-32.8,26.11-.82,4.4,5.92,6.29,6.75,1.86h0Z"/><g id="hej"><path class="cls-4" d="m229.77,245.86c.31-4.97,4.36-8.8,7.76-12.05,3.77-3.6,8.3-6.76,13.77-5.6,4.39.94,6.27-5.81,1.86-6.75-7.48-1.59-13.89,1.38-19.4,6.3s-10.52,10.59-10.99,18.1c-.28,4.5,6.72,4.48,7,0h0Z"/></g></svg>