<?xml version="1.0" encoding="UTF-8"?><svg id="Layer_1" xmlns="http://www.w3.org/2000/svg" width="287.88" height="280.33" viewBox="0 0 287.88 280.33"><defs><style>.cls-1{stroke:#ff1054;stroke-miterlimit:10;}.cls-1,.cls-2{fill:#ff1054;}.cls-3{fill:#e00040;}.cls-3,.cls-2,.cls-4{stroke-width:0px;}.cls-4{fill:#01142a;}</style></defs><path class="cls-3" d="m113.48,10.66c7.13,2.17,14.38,4.04,21.72,5.62,3.84.82,7.73,1.57,11.68,1.81,2.33.14,4.68.11,7.01.26,3.72.24,7.37.92,11.04,1.52,9.78,1.61,19.69,2.63,29.64,3.05-6.29,7.5-12.92,15.02-21.79,20.32-8.87,5.3-20.48,8.1-30.77,5.18-3.63-1.03-6.95-2.71-10.24-4.38-2.11-1.07-4.23-2.15-6-3.6-1.45-1.19-2.63-2.6-3.7-4.06-5.36-7.23-8.44-15.67-8.85-24.21,1.12.71,2.72.83,3.98.3-.75-.3-1.5-.6-2.25-.9,6.85,1.32,13.7,2.64,20.55,3.97,6.78,1.31,13.55,2.62,20.33,3.92"/><path class="cls-3" d="m112.55,14.03c12.99,3.9,26.01,7.14,39.59,7.73,6.77.29,13.44,1.82,20.14,2.7,7.4.98,14.83,1.61,22.28,1.96l-2.47-5.97c-10.83,12.87-24.02,26.15-42.19,25.65-7.87-.22-18.28-4.21-23.66-10.05-5.84-6.33-8.96-15.41-9.53-23.86l-4.43,3.37c2.04.83,3.73.8,5.84.3,3.68-.87,2.95-5.58,0-6.75-.75-.3-1.5-.6-2.25-.9l-1.86,6.75c13.63,2.63,27.25,5.26,40.88,7.89,4.4.85,6.29-5.9,1.86-6.75-13.63-2.63-27.25-5.26-40.88-7.89-4.49-.87-6.01,5.1-1.86,6.75.75.3,1.5.6,2.25.9v-6.75l-2.12-.3c-2.05-.84-4.57,1.29-4.43,3.37.67,9.97,4.12,19.58,10.42,27.41,5.72,7.1,16.7,11.93,25.64,13.15,21.61,2.96,38.39-12.05,51.26-27.34,1.96-2.33.69-5.83-2.47-5.97-6.83-.32-13.65-.86-20.44-1.72s-13.44-2.4-20.24-2.86-13.01-.89-19.6-2.35c-6.69-1.48-13.32-3.25-19.88-5.22-4.32-1.3-6.17,5.46-1.86,6.75h0Z"/><path class="cls-2" d="m210.92,235.31c-2.04-13.88-4.65-21.63-5.8-35.52-1.84-22.27,8.23-43.58,12.47-65.78,1.86-9.75,6.81-37.5,9.29-44.99l-31.84-68.2c-7.83,16.05-26.6,27.8-45.8,26.78s-36.75-16.06-37.06-33.55c-.04-2.27.06-4.83-1.69-6.43-1.04-.94-2.52-1.33-3.94-1.69-3.12-.78-6.24-1.57-9.36-2.35-4.02.13-9.76-.34-13.62-.03-4.59.37-8.34,1.63-12.42,3-5.3,1.77-10.47,4.39-15.33,6.96-5.48,2.9-10.77,6.58-16.6,8.77-2.49.94-4.68,1.72-6.98,3.05-2.22,1.29-4.66,1.66-6.9,2.86-5.3,2.85-10.37,4.03-16.22,5.1-1.27.23-4.52.41-5.71.83-.09.12.86.18.77.29,1.07,2.25,3.01,4.77,4.03,6.91,1.49,3.12,2.83,6.29,4.32,9.41.25.42.45.87.62,1.33.1.11.21.23.35.39.48.62.95,1.23,1.43,1.85-.33-.47-.47-.67.11.14-.04-.05-.07-.09-.11-.14.37.54.99,1.42,1.07,1.56.14.25.27.51.39.78,1.36,1.82,2.47,3.85,3.05,4.99-.35-.69,1.11,2.14,1.28,2.53.45,1.01.81,1.84,1.12,2.5,1.81,3.8,4.96,6.15,7.21,9.37,1.62,1.42,3.21,2.89,4.54,4.55.95.89,1.76,1.95,2.47,3.02l-.26-.26c.63.96,1.11,2.01,1.55,3.2.52-.18,1.01-.48,1.48-.95,4.2-4.22,14.64-14.44,18.82-15.09-1.31,18.25-12.68,45.84-19.47,63.32-19.75,50.81-17.7,57.24-17.7,115.16,26.68,4.59,29.36,6.68,49.16,13.05,20.1,6.47,34.99,9.79,49.2,12.49,44.71,8.47,55.22-8.94,97.83-8.94-4.52-13.01-3.24-13.15-5.75-30.27Z"/><path class="cls-2" d="m214.3,234.38c-1.75-11.55-4.8-22.92-5.67-34.59-.98-13.04,2.04-25.69,5.5-38.16,5.22-18.84,8.69-37.75,12.63-56.87.76-3.68,1.53-7.37,2.45-11.01.61-2.41,1.44-4.13.68-6.55s-2.3-4.92-3.39-7.26c-5.42-11.62-10.85-23.23-16.27-34.85-4.05-8.67-8.1-17.35-12.15-26.02-1.1-2.35-4.91-2.22-6.04,0-13.52,26.55-55.97,36.17-72.79,7.19-1.63-2.8-2.81-5.92-3.31-9.13s.18-6.77-1.39-9.77c-1.36-2.58-3.64-3.76-6.34-4.59-3.93-1.2-8.3-2.51-12.4-2.64-7.45-.24-14.61-.33-21.81,1.85-8.04,2.44-15.61,6.04-22.9,10.17-7.72,4.38-15.64,8.29-23.91,11.53-4.4,1.72-8.46,3.87-13.08,5.02-3.83.95-7.79,1.14-11.61,2.06s-2.99,5.6,0,6.75c1,.38-.59.07-.59.06.59.93,1.18,1.88,1.75,2.82,1.29,2.14,2.33,4.35,3.36,6.63,1.61,3.55,3.09,6.7,5.46,9.77s7.76-.98,5.5-4.24l-.28-.41-6.04,3.53.39.55,5.5-4.24-.11-.14c-2.41-3.12-7.76.98-5.5,4.24,1.63,2.34,3.18,4.8,4.51,7.32,2.12,4.02,7.97.49,6.04-3.53l-.02-.04-6.04,3.53c1.83,3.56,3.32,7.03,5.93,10.12,3.41,4.05,7.68,7.56,10.71,11.9l5.5-4.24-.26-.26c-2.8-2.8-7.54.79-5.5,4.24.49.74.89,1.53,1.2,2.36.88,2.21,2.94,3.15,5.14,2.09,7.24-3.48,11.23-13.71,19.47-15.69l-4.43-3.37c-1.1,13.21-5.71,26.17-10.21,38.55s-9.92,25.43-14.58,38.26c-6.83,18.8-11.44,37.5-12.19,57.55-.55,14.69-.2,29.42-.2,44.12,0,1.41,1.08,3.12,2.57,3.37,11.53,2,22.89,4.33,34.01,8.01,13.4,4.43,26.75,8.88,40.45,12.32s28.62,6.92,43.16,7.55c11.95.52,23.57-1.44,35.12-4.34,14.74-3.7,29.09-6.73,44.37-6.82,2.16-.01,4.13-2.24,3.37-4.43-3.42-9.97-4.26-19.9-5.75-30.27-.64-4.44-7.39-2.55-6.75,1.86,1.5,10.39,2.32,20.29,5.75,30.27l3.37-4.43c-13.19.07-26.04,2-38.82,5.19-11.32,2.83-22.48,5.82-34.23,6.05-14.38.29-28.61-2.83-42.54-6.11-14.33-3.38-28.36-7.76-42.3-12.46-12.26-4.13-24.63-6.93-37.37-9.14l2.57,3.37c0-22.4-1.63-45.6,2.68-67.73,4.54-23.34,14.73-45.19,22.95-67.37,5.18-13.96,10.31-28.44,11.55-43.38.2-2.36-2.39-3.87-4.43-3.37-3.98.96-7.41,4.1-10.45,6.68-3.32,2.82-6.8,7.84-10.69,9.72l5.14,2.09c-.56-1.4-1.13-2.73-1.9-4.04l-5.5,4.24.26.26c2.73,2.73,7.83-.9,5.5-4.24-2.85-4.08-6.6-7.4-9.86-11.12-2.97-3.4-4.74-6.94-6.77-10.9s-7.98-.49-6.04,3.53l.02.04,6.04-3.53c-1.34-2.53-2.89-4.98-4.51-7.32l-5.5,4.24.11.14c2.41,3.11,7.81-1.01,5.5-4.24l-.39-.55c-2.59-3.62-8.63-.2-6.04,3.53l.28.41,5.5-4.24c-2.95-3.82-4.24-8.69-6.53-12.93-1.66-3.08-3.14-6.85-6.54-8.15v6.75c7.26-1.74,14.25-2.28,21.18-5.47,7.4-3.41,15.23-6.08,22.39-10,15.6-8.53,31.62-18.12,50.21-14.59,3.64.69,9.89,1.16,10.52,5.23.54,3.46.37,6.75,1.46,10.17,1.97,6.19,5.76,11.78,10.52,16.17,10.62,9.79,25.14,13.76,39.3,11.41,16.09-2.67,30.73-13.3,38.13-27.83h-6.04c10.61,22.73,21.22,45.46,31.84,68.2l-.35-2.7c-6.32,19.79-7.65,41.02-13.16,61.06-4.07,14.79-8.97,29.73-8.94,45.24.03,14.15,4.04,27.95,6.14,41.85.67,4.44,7.42,2.55,6.75-1.86Z"/><path class="cls-3" d="m72.35,6.4c-11.3,22.88-21.26,46.01-18.48,67.59,6.18-22.45,12.4-44.91,19.99-67.82-.53.08-1.03.16-1.51.22Z"/><path class="cls-3" d="m210.24,153.35c-14.37,41.24-7.28,77.75.82,107.95.34,1.28-31.65,5.25-33.48,5.84-38.48,12.45-65.32,5.07-90.64-6.1,60.53-19.58,101.94-57.45,123.31-107.7Z"/><path class="cls-3" d="m229.08,24c5.32,27.59,10.6,55.77,1.38,78.92.1-25.97.19-51.94-1.38-78.92Z"/><path class="cls-4" d="m114.03,13.56c14.53,2.83,29.15,5.13,43.85,6.87,7.35.87,14.72,1.6,22.1,2.19,3.26.26,11-.46,8.4,4.89-1.5,3.09-5.36,5.56-8,7.54-5.26,3.92-11.23,8.1-17.6,9.96-6.99,2.04-15.17.12-21.99-1.91-6.54-1.94-12.87-5.19-17.3-10.51-4.95-5.96-5.75-13.78-6.41-21.2-.4-4.45-7.4-4.49-7,0,.76,8.52,1.76,17.19,6.98,24.28,4.61,6.25,11.3,10.42,18.51,13.08,8.02,2.96,18.24,5.27,26.76,3.59,8.19-1.61,15.76-6.86,22.3-11.78,5.31-4,12.18-9.17,11.59-16.66-.72-9.24-11.51-7.87-18.17-8.42-20.87-1.73-41.62-4.66-62.17-8.66-4.4-.86-6.29,5.89-1.86,6.75h0Z"/><path class="cls-4" d="m117.52,22.9c-.22-.95-2.05-9.56-1.03-10.04l-2.7.35c-2.91-1.2-3.28,1.31-3.1,3.71.28,3.82,5.75,4.89,6.87.93.22-1.32.94-2.2,2.16-2.64l-4.24-5.5c-1.54,1.31-2.95,2.68-4.3,4.18l5.85,3.41c.59-1.75,17.78,1.31,19.59,1.69,2.92.6,5.58,1.97,8.53,2.43s6.05.41,9.05.55c6.94.33,13.88.66,20.83.99,3.16.15,7.5-.23,10.49.91,1.81.69,1.73.13.67,2.05-.87,1.57-1.52,3.05-2.72,4.46-3.87,4.53-9.71,8.52-15.28,10.61-7.18,2.69-14.92,1.33-22.25.07-6.74-1.16-12.96-2.96-18.2-7.55-3.53-3.1-12.52-12.71-7.97-17.52,3.09-3.27-1.85-8.23-4.95-4.95-9.35,9.9,3.4,24.54,11.73,30.39,6.05,4.25,13.1,5.69,20.27,6.84,7.74,1.24,15.67,2.22,23.23-.52,8.7-3.15,26.46-14.17,23.53-25.85-1.47-5.84-10.16-5.45-14.94-5.74-8.8-.52-17.62-.85-26.42-1.27-2.03-.1-4.12-.05-6.12-.39-2.33-.4-4.47-1.51-6.77-2.06-3.66-.87-7.49-1.12-11.22-1.55-6.34-.73-15.16-3.29-17.82,4.56-1.11,3.28,3.55,5.97,5.85,3.41,1.35-1.5,2.76-2.88,4.3-4.18,3.11-2.65-.86-7.35-4.24-5.5-2.81,1.54-4.51,3.75-5.38,6.83l6.87.93c-.2-2.79,2.69-4.38,1.25-7.65-.98-2.22-3.2-3.37-5.56-2.63-6.41,1.99-3.66,13.55-2.61,18.12s7.76,2.53,6.75-1.86h0Z"/><path class="cls-4" d="m184.88,24.28c.25.38.48.77.67,1.18-.25-.52.11.31.14.43.1.33.18.65.25.99.07.42.08.45.02.08.02.23.03.45.03.68.05,1.83,1.57,3.59,3.5,3.5s3.56-1.54,3.5-3.5c-.07-2.44-.74-4.83-2.07-6.88-1-1.53-3.15-2.31-4.79-1.26-1.53.99-2.32,3.15-1.26,4.79h0Z"/><path class="cls-4" d="m109.96,21.82c1.3,6.04,4.5,11.5,9.16,15.56,3.38,2.95,8.35-1.98,4.95-4.95-3.83-3.35-6.29-7.5-7.36-12.47-.95-4.4-7.7-2.54-6.75,1.86h0Z"/><path class="cls-2" d="m85.19,4.62c-4.59.37-10.45,1.5-14.03,1.95-5.54.7-10.47,4.39-15.33,6.96-5.48,2.9-10.77,6.58-16.6,8.77-2.49.94-4.68,1.72-6.98,3.05-2.22,1.29-4.66,1.66-6.9,2.86-5.3,2.85-10.77.87-16.22,3.26-2.86,1.26-3.45,3.44-8.18,3.44-.24,0-.45-.95-.69-.92,8,21.14,24.39,40.99,37.39,58.95.11.15.29.16.42.03,25.9-25.9,42.61-57.03,67.4-85.93-1.77-1.17-3.64-2.32-5.56-3.45-4.84-.13-9.99.65-14.72,1.04Z"/><path class="cls-3" d="m71.15,6.57c-10.41,25.56-23.38,47.71-16.72,65.41,4.06-22.66,10.63-41.4,16.72-65.41Z"/><path class="cls-1" d="m195.65,19.13c-.08-.51.23-1.12.75-1.14,14.72-.48,24.27.11,39.09,9.96,12.95,8.61,20.14,20.93,30.53,31.32,4.19,4.19,9.73,11.72,14.71,14.94,10.25,6.63,8.34,6.95-3.59,15.18-18.57,12.81-27.05,21.88-41.14,40.66-.51.68-1.59.41-1.72-.44-6.51-41.66-32.55-71.09-38.62-110.5Z"/><path class="cls-3" d="m226.5,25.07c4.33,26.25,8.62,53.07.5,75.62.31-24.9.62-49.81-.5-75.62Z"/></svg>