<?xml version="1.0" encoding="UTF-8"?><svg id="Layer_1" xmlns="http://www.w3.org/2000/svg" width="406.72" height="404.91" viewBox="0 0 406.72 404.91"><defs><style>.cls-1,.cls-2,.cls-3,.cls-4,.cls-5,.cls-6,.cls-7{stroke-width:0px;}.cls-2{fill:#1a44ff;}.cls-3{fill:#4474ab;}.cls-4{fill:#bcd7f5;}.cls-5{fill:#6596cf;}.cls-6{fill:#fff;}.cls-7{fill:#ff1054;}</style></defs><rect class="cls-1" x="178.19" y="37.82" width="228.52" height="214.37"/><polygon class="cls-1" points="183.32 34.02 195.74 0 391.98 0 401.91 34.02 183.32 34.02"/><ellipse class="cls-6" cx="342.89" cy="17.01" rx="9.44" ry="8.85"/><ellipse class="cls-6" cx="374.19" cy="17.01" rx="9.44" ry="8.85"/><rect class="cls-6" x="301.35" y="12.02" width="22.85" height="2.33"/><rect class="cls-6" x="301.35" y="20.41" width="22.85" height="2.33"/><ellipse class="cls-6" cx="292.46" cy="145.01" rx="59.61" ry="55.92"/><path class="cls-5" d="m238.44,138.13c-2.35,16.65,7.6,37.02,21.52,47.58,13.92,10.56,33.8,13.74,50.67,8.11,16.86-5.64,33.11-21.29,36.77-37.73-19.67,13.32-13.21,4.27-21.44,5.7,6.52.13,9.46-9.68,1.3-12.41-3.83-1.28-11.49,3.68-14.38,4.92-6.21,2.66-7.41,3.98-15.29,2.77-1.94.63,1.68.14,1.68-3.24,0-1.37-1.24-2.56-4.89-2.56-5.85.43-5.11,3.58-18.78-.04,1.83-.71,3.65-.7,4.45-3.14.35-1.05.39-1.75-.39-3.49-1.25-2.8-9.49-2.73-13.98-1.47-9.89,2.78-21.86,3.81-27.24-5.01Z"/><ellipse class="cls-5" cx="312.58" cy="143.97" rx="2.98" ry="2.8"/><ellipse class="cls-5" cx="295.07" cy="130.69" rx="4.72" ry="4.43"/><ellipse class="cls-4" cx="272.95" cy="168.2" rx="4.72" ry="4.43"/><ellipse class="cls-3" cx="322.39" cy="118.81" rx="2.98" ry="2.8"/><ellipse class="cls-3" cx="312.78" cy="165.41" rx="2.98" ry="2.8"/><ellipse class="cls-3" cx="253.16" cy="154.69" rx="2.98" ry="2.8"/><ellipse class="cls-5" cx="263.24" cy="133.45" rx="4.99" ry="4.68"/><ellipse class="cls-4" cx="333.82" cy="136.49" rx="5.59" ry="5.24"/><path class="cls-5" d="m274.51,273.8c-13.35-12.22-34.58-12.06-51.09-4.93-16.51,7.14-29.65,19.91-43.23,31.56-6.12,5.25-12.86,10.51-20.94,11.58-7.95,1.05-18.46-1.01-21.97,6.07,2.5,1.34,5,2.68,7.5,4.03-33.84,13.78-73.12,14.37-107.69,1.62-7.52-2.77-16.77-5.9-22.76-.75-1.39,1.19-2.48,3.01-2,4.78.44,1.62,2.04,2.65,3.56,3.43,25.25,12.98,58.91.56,82.52,16.29-8.8,5.52-20.16,4.2-30.65,3.92-12.38-.34-24.79,1.05-36.74,4.12-3.13.8-6.37,1.81-8.58,4.12s-2.89,6.34-.62,8.65c1.96,2,5.15,1.97,7.94,1.8,13.75-.82,27.51-1.65,41.26-2.47.56,4.4-4.25,7.68-8.7,8.23-4.45.55-9.07-.48-13.42.57s-8.39,5.65-6.38,9.63c2.18,4.32,8.56,3.56,13.17,2.08,19.46-6.25,38.62-13.4,57.37-21.44,3.22-1.38,6.57-2.81,10.1-2.63,3.52.18,7.23,2.55,7.63,6.01.43,3.67-2.8,6.64-5.88,8.7-8.65,5.78-19.23,10.44-23.24,19.97-.41.97-.73,2.05-.39,3.05.37,1.05,1.4,1.74,2.44,2.19,7,3.01,14.66-1.73,20.69-6.24,9.98-7.47,20.08-15.06,27.69-24.87,6.17-7.96,10.52-17.15,16.08-25.54,10.9-16.45,26.58-29.76,44.72-37.94-5.83,6.55-11.66,13.11-17.49,19.66-1.19,1.34-2.44,2.82-2.56,4.6-.2,3.18,3.54,5.54,6.74,5.12,3.2-.41,5.78-2.68,7.97-5,11.06-11.68,17.63-26.79,27.5-39.47,9.87-12.68,25.32-23.39,41.35-20.31"/><path class="cls-3" d="m273.18,272.99c-13.78-6.24-30.35-5.99-43.78.64-13.43,6.64-23.46,19.53-26.5,34.07,12.68-25.34,43.74-40.15,70.28-34.71Z"/><path class="cls-3" d="m188.69,301.56c-11.81,1.6-21.64,9.62-29.45,18.43-7.82,8.81-14.39,18.79-23.38,26.45-8.98,7.66-21.33,12.83-32.86,9.61,18.57,7.54,42.14-1.2,50.83-18.86,7.25-14.74,18.94-27.29,34.86-35.63Z"/><path class="cls-3" d="m109.18,343.75c-28.7-4.81-57.4-9.61-86.11-14.42,28.17,8.31,57.41,13,86.11,14.42Z"/><path class="cls-4" d="m257.49,267.07c-13.37-5.14-29.55-1.89-39.67,7.95,11.73-6.1,25.1-9.16,39.67-7.95Z"/><path class="cls-4" d="m149.55,362.7c-7.59,12.63-18.62,23.21-31.64,30.33,14.86-3.4,27.49-14.8,31.64-30.33Z"/><path class="cls-4" d="m84.34,356.28c-16-5.97-34.32-5.42-49.76,1.51,16.29-1.71,32.69-2.43,49.76-1.51Z"/><path class="cls-4" d="m187.13,337.75c-1.11,5.74-2.21,11.47-3.32,17.21-.46,2.38-4.29,2.71-5.82.79-1.53-1.92-1.05-4.79.31-6.8,1.36-2.01,3.43-3.42,5.24-5.05,1.81-1.63,3.46-3.7,3.59-6.16Z"/><path class="cls-4" d="m95.02,387.1c-5.89,1.47-11.78,2.93-17.67,4.4-2.44.61-2.53,4.5-.44,5.91,2.09,1.42,5.04.73,7.02-.78,1.99-1.51,3.32-3.68,4.91-5.6,1.59-1.91,3.67-3.69,6.18-3.93Z"/><path class="cls-4" d="m42.31,344.05c-13.44.29-26.99-3.9-37.94-11.73-2.07-1.48-4.95,1.45-4.27,3.88s3.27,3.8,5.69,4.61c2.42.81,5.07,1.43,6.8,3.29-2.53-.86-5.44-1.7-7.74-.39s-2.16,5.74.51,5.87c12.71.65,25.52-1.42,36.95-5.53Z"/><path class="cls-5" d="m33.61,376.48c-9.18.73-18.36,1.46-27.53,2.19-2.8.22-4.86,3.46-3.86,6.07,1.01,2.6,4.75,3.72,7.01,2.09,7.33-5.3,15.87-8.97,24.38-10.35Z"/><ellipse class="cls-2" cx="308.67" cy="181" rx="3.18" ry="3"/><ellipse class="cls-2" cx="282.04" cy="159.12" rx="1.51" ry="1.43"/><ellipse class="cls-2" cx="285.21" cy="179.26" rx="3.18" ry="1.74"/><ellipse class="cls-2" cx="256.66" cy="161.45" rx="1.59" ry="1.74"/><polygon class="cls-2" points="292.37 161.45 291.76 165.31 292.97 165.31 292.37 161.45"/><polygon class="cls-6" points="292.46 181.05 293.93 177.91 290.81 177.94 292.46 181.05"/><polygon class="cls-7" points="275.31 156.52 276.77 153.38 273.65 153.41 275.31 156.52"/><ellipse class="cls-7" cx="307.29" cy="163.95" rx=".76" ry="1.36"/><ellipse class="cls-7" cx="323.51" cy="183.33" rx="1.87" ry="1.36"/><ellipse class="cls-7" cx="279.18" cy="185.27" rx="2.05" ry="1.94"/><ellipse class="cls-6" cx="324.21" cy="171.2" rx="1.52" ry="1.44"/><ellipse class="cls-2" cx="181.01" cy="310.03" rx="4.28" ry="4.37" transform="translate(-160.97 200.78) rotate(-42.01)"/><ellipse class="cls-2" cx="215.27" cy="297.22" rx="2.99" ry="3.03" transform="translate(-151.14 317.89) rotate(-57.31)"/><ellipse class="cls-2" cx="130.59" cy="344.54" rx="2.04" ry="2.08" transform="translate(-197.02 175.91) rotate(-42.01)"/><ellipse class="cls-2" cx="174.2" cy="325.24" rx="1.51" ry="1.74" transform="translate(-61.56 41.43) rotate(-11.54)"/><polygon class="cls-2" points="140.66 329.98 141.83 333.71 140.7 333.87 140.66 329.98"/><polygon class="cls-2" points="107.12 362.26 109.98 367.15 108.46 367.75 107.12 362.26"/><polygon class="cls-6" points="132.1 339.81 130.24 336.89 133.17 336.51 132.1 339.81"/><polygon class="cls-6" points="131.28 333.61 133.14 336.53 130.21 336.91 131.28 333.61"/><polygon class="cls-6" points="113.51 362.8 111.36 358.3 115.6 358.25 113.51 362.8"/><polygon class="cls-6" points="113.41 353.79 115.56 358.28 111.32 358.33 113.41 353.79"/><polygon class="cls-7" points="155.93 322.84 154.06 319.92 157 319.54 155.93 322.84"/><polygon class="cls-7" points="155.15 316.59 157.01 319.51 154.07 319.9 155.15 316.59"/><ellipse class="cls-7" cx="189.09" cy="313.42" rx="1.18" ry="1.36" transform="translate(-59.21 44.47) rotate(-11.61)"/><ellipse class="cls-7" cx="163.59" cy="320.44" rx="2.53" ry="1.97" transform="translate(-99.96 75.52) rotate(-20.05)"/><ellipse class="cls-7" cx="220.47" cy="301.35" rx="2.77" ry="2.83" transform="translate(-145.02 224.96) rotate(-42.01)"/><ellipse class="cls-6" cx="112.27" cy="343.84" rx="1.43" ry="1.45" transform="translate(-237.75 252.64) rotate(-57.31)"/><ellipse class="cls-6" cx="193.9" cy="301.69" rx="1.43" ry="1.45" transform="translate(-164.73 301.95) rotate(-57.31)"/></svg>